<svg xmlns="http://www.w3.org/2000/svg" width="216" height="126.169" viewBox="0 0 216 126.169">
    <defs>
        <style>
            .cls-1{fill:#484642}.cls-2{fill:#f4263d}.cls-3{fill:#959595}
        </style>
    </defs>
    <g id="Group_504" transform="translate(861.825 -1348.229)">
        <g id="Group_485" transform="translate(-727.789 1392.432)">
            <path id="Path_1251" d="M-621.728 1495.86a41.029 41.029 0 0 1-40.982-40.983 41.028 41.028 0 0 1 40.982-40.982 41.028 41.028 0 0 1 40.982 40.982 41.029 41.029 0 0 1-40.982 40.983zm0-73.887a32.941 32.941 0 0 0-32.9 32.9 32.941 32.941 0 0 0 32.9 32.9 32.942 32.942 0 0 0 32.9-32.9 32.941 32.941 0 0 0-32.9-32.9z" class="cls-1" transform="translate(662.71 -1413.895)"/>
        </g>
        <g id="Group_486" transform="translate(-687.817 1424.643)">
            <path id="Path_1252" d="M-602.32 1479.9a1.01 1.01 0 0 1-1.01-1.01 1.01 1.01 0 0 1 1.01-1.01 7.371 7.371 0 0 0 7.363-7.363 7.338 7.338 0 0 0-4.594-6.826 1.009 1.009 0 0 1-.555-1.315 1.008 1.008 0 0 1 1.315-.555 9.349 9.349 0 0 1 5.854 8.7 9.393 9.393 0 0 1-9.383 9.379z" class="cls-2" transform="translate(603.33 -1461.744)"/>
        </g>
        <g id="Group_487" transform="translate(-701.924 1408.872)">
            <path id="Path_1253" d="M-609.17 1489.991a27.042 27.042 0 0 1-14.653-4.293 1.009 1.009 0 0 1-.3-1.395 1.011 1.011 0 0 1 1.4-.3 25.028 25.028 0 0 0 13.561 3.972 25.142 25.142 0 0 0 25.114-25.113 25.274 25.274 0 0 0-14.2-22.624 1.009 1.009 0 0 1-.469-1.349 1.01 1.01 0 0 1 1.348-.469 27.3 27.3 0 0 1 15.339 24.442 27.163 27.163 0 0 1-27.14 27.129z" class="cls-2" transform="translate(624.286 -1438.316)"/>
        </g>
        <g id="Group_488" transform="translate(-840.336 1406.282)">
            <path id="Path_1254" d="M-792.985 1482.075a1.007 1.007 0 0 1-.753-.336 1.01 1.01 0 0 1 .079-1.426 25.157 25.157 0 0 0 8.359-18.713 25.141 25.141 0 0 0-25.113-25.113 24.95 24.95 0 0 0-17.769 7.366 1.009 1.009 0 0 1-1.428 0 1.01 1.01 0 0 1 0-1.428 26.953 26.953 0 0 1 19.2-7.959 27.163 27.163 0 0 1 27.132 27.132 27.179 27.179 0 0 1-9.034 20.216 1.008 1.008 0 0 1-.673.261z" class="cls-1" transform="translate(829.902 -1434.469)"/>
        </g>
        <g id="Group_489" transform="translate(-861.825 1392.432)">
            <path id="Path_1255" d="M-820.842 1495.86a41.029 41.029 0 0 1-40.983-40.983 41.028 41.028 0 0 1 40.983-40.982 41.028 41.028 0 0 1 40.983 40.982 41.029 41.029 0 0 1-40.983 40.983zm0-73.887a32.942 32.942 0 0 0-32.9 32.9 32.942 32.942 0 0 0 32.9 32.9 32.942 32.942 0 0 0 32.9-32.9 32.942 32.942 0 0 0-32.9-32.9z" class="cls-2" transform="translate(861.825 -1413.895)"/>
        </g>
        <g id="Group_490" transform="translate(-723.886 1355.557)">
            <path id="Path_1256" d="M-643.081 1388.776a2.356 2.356 0 0 1-2.142-1.373l-11.473-24.948a2.355 2.355 0 0 1 1.156-3.124 2.358 2.358 0 0 1 3.125 1.156l11.474 24.948a2.356 2.356 0 0 1-1.156 3.125 2.343 2.343 0 0 1-.984.216z" class="cls-1" transform="translate(656.912 -1359.116)"/>
        </g>
        <g id="Group_491" transform="translate(-724.896 1354.547)">
            <path id="Path_1257" d="M-645.529 1385.036a3.367 3.367 0 0 1-3.06-1.96l-9.514-20.69a3.365 3.365 0 0 1 1.652-4.464 3.367 3.367 0 0 1 4.464 1.652l9.514 20.689a3.366 3.366 0 0 1-1.651 4.464 3.367 3.367 0 0 1-1.405.309z" class="cls-3" transform="translate(658.413 -1357.614)"/>
        </g>
        <g id="Group_492" transform="translate(-711.402 1381.514)">
            <path id="Path_1258" d="M-634.5 1405.857a1.345 1.345 0 0 1-1.224-.783l-2.524-5.488a1.347 1.347 0 0 1 .66-1.786 1.346 1.346 0 0 1 1.786.66l2.524 5.488a1.347 1.347 0 0 1-.661 1.786 1.341 1.341 0 0 1-.561.123z" class="cls-1" transform="translate(638.367 -1397.675)"/>
        </g>
        <g id="Group_493" transform="translate(-709.889 1385.994)">
            <path id="Path_1259" d="M-613.036 1454.108a2.357 2.357 0 0 1-2.142-1.372l-20.722-45.066a2.356 2.356 0 0 1 1.156-3.125 2.358 2.358 0 0 1 3.125 1.156l20.725 45.065a2.356 2.356 0 0 1-1.156 3.125 2.343 2.343 0 0 1-.986.217z" class="cls-3" transform="translate(636.119 -1404.331)"/>
        </g>
        <g id="Group_494" transform="translate(-786.255 1365.389)">
            <path id="Path_1260" d="M-726.771 1450.551a2.344 2.344 0 0 1-.256-.014 2.354 2.354 0 0 1-1.925-1.45l-20.436-49.937a2.352 2.352 0 0 1 .07-1.938 2.356 2.356 0 0 1 1.5-1.23c8.557-2.293 66.16-21.937 66.741-22.134a2.355 2.355 0 0 1 2.9 1.245l1.412 3.07a2.358 2.358 0 0 1-.2 2.327l-47.867 69.048a2.356 2.356 0 0 1-1.939 1.013zm-17.265-50.764l17.8 43.5 44.54-64.249c-9.875 3.362-49.913 16.962-62.34 20.749z" class="cls-3" transform="translate(749.564 -1373.721)"/>
        </g>
        <g id="Group_495" transform="translate(-793.038 1369.674)">
            <path id="Path_1261" d="M-750.209 1402.273a1.347 1.347 0 0 1-1.245-.831l-8.083-19.495a1.346 1.346 0 0 1 .728-1.759 1.348 1.348 0 0 1 1.76.728l8.083 19.495a1.346 1.346 0 0 1-.728 1.759 1.355 1.355 0 0 1-.515.103z" class="cls-1" transform="translate(759.64 -1380.086)"/>
        </g>
        <g id="Group_496" transform="translate(-798.09 1358.916)">
            <path id="Path_1262" d="M-761.206 1377.453a2.358 2.358 0 0 1-2.178-1.454l-3.581-8.635a2.357 2.357 0 0 1 1.274-3.08 2.359 2.359 0 0 1 3.079 1.274l3.581 8.635a2.356 2.356 0 0 1-1.274 3.079 2.345 2.345 0 0 1-.901.181z" class="cls-1" transform="translate(767.145 -1364.104)"/>
        </g>
        <g id="Group_497" transform="translate(-790.995 1376.246)">
            <path id="Path_1263" d="M-746.164 1414.057a2.358 2.358 0 0 1-2.177-1.454l-8.083-19.5a2.356 2.356 0 0 1 1.274-3.079 2.358 2.358 0 0 1 3.079 1.274l8.083 19.5a2.356 2.356 0 0 1-1.274 3.079 2.343 2.343 0 0 1-.902.18z" class="cls-3" transform="translate(756.605 -1389.849)"/>
        </g>
        <g id="Group_498" transform="translate(-823.198 1385.993)">
            <path id="Path_1264" d="M-744.706 1460.555a2.394 2.394 0 0 1-.266-.015l-57.379-6.448a2.356 2.356 0 0 1-1.916-1.444 2.357 2.357 0 0 1 .343-2.374l36.245-45.065a2.356 2.356 0 0 1 3.313-.359 2.356 2.356 0 0 1 .36 3.313l-33.56 41.725 53.12 5.97a2.356 2.356 0 0 1 2.078 2.6 2.356 2.356 0 0 1-2.338 2.097z" class="cls-3" transform="translate(804.444 -1404.329)"/>
        </g>
        <g id="Group_499" transform="translate(-776.28 1427.046)">
            <path id="Path_1265" d="M-721.928 1490.947a12.831 12.831 0 0 1-12.817-12.816 12.831 12.831 0 0 1 12.817-12.817 12.831 12.831 0 0 1 12.817 12.817 12.831 12.831 0 0 1-12.817 12.816zm0-20.921a8.114 8.114 0 0 0-8.1 8.1 8.113 8.113 0 0 0 8.1 8.1 8.113 8.113 0 0 0 8.1-8.1 8.114 8.114 0 0 0-8.1-8.1z" class="cls-1" transform="translate(734.745 -1465.314)"/>
        </g>
        <g id="Group_500" transform="translate(-767.734 1435.592)">
            <circle id="Ellipse_258" cx="4.271" cy="4.271" r="4.271" class="cls-1"/>
        </g>
        <g id="Group_501" transform="translate(-809.767 1356.985)">
            <path id="Path_1266" d="M-760.316 1361.253H-771.6c-.112-.009-.224-.017-.338-.017h-8.343a4.151 4.151 0 0 0-4.207 3.915 4.039 4.039 0 0 0 4.037 4.163h8.513a4.03 4.03 0 0 0 3.11-1.463 7.487 7.487 0 0 1 5.8-2.559h2.829a2.019 2.019 0 0 0 2.017-2.127 2.1 2.1 0 0 0-2.134-1.912z" class="cls-2" transform="translate(784.492 -1361.236)"/>
        </g>
        <g id="Group_502" transform="translate(-724.424 1350.354)">
            <path id="Path_1267" d="M-655.354 1360.688a2.356 2.356 0 0 1-2.145-1.378 2.356 2.356 0 0 1 1.165-3.121l10.053-4.589a2.355 2.355 0 0 1 3.121 1.165 2.356 2.356 0 0 1-1.165 3.121l-10.053 4.588a2.333 2.333 0 0 1-.976.214z" class="cls-1" transform="translate(657.712 -1351.386)"/>
        </g>
        <g id="Group_503" transform="translate(-716.498 1348.229)">
            <circle id="Ellipse_259" cx="4.483" cy="4.483" r="4.483" class="cls-2"/>
        </g>
    </g>
</svg>
