<svg xmlns="http://www.w3.org/2000/svg" width="128" height="128" viewBox="0 0 128 128">
    <defs>
        <style>
            .cls-1{fill:#f4263d}
        </style>
    </defs>
    <g id="Group_519" transform="translate(1104.299 -1575.407)">
        <g id="Group_517" transform="translate(-1102.615 1604.934)">
            <path id="Path_1274" d="M-1078.279 1695.519h-6.365a2.357 2.357 0 0 1-1.775-.806 61.877 61.877 0 0 1-14.94-33.542 62.68 62.68 0 0 1-.44-7.453 62.605 62.605 0 0 1 1.246-12.459 61.788 61.788 0 0 1 8.436-20.92 2.359 2.359 0 0 1 1.99-1.093h26.659a12.435 12.435 0 0 1 12.42 12.421 12.315 12.315 0 0 1-3.644 8.782 12.307 12.307 0 0 1-8.776 3.637h-16.407a7.156 7.156 0 0 0-5.105 2.115l-.007.007a7.156 7.156 0 0 0-2.115 5.106 7.231 7.231 0 0 0 7.227 7.22h1.6a18.51 18.51 0 0 1 18.489 18.489 18.393 18.393 0 0 1-5.411 13.074 18.375 18.375 0 0 1-13.082 5.422zm-5.283-4.715h5.283a13.689 13.689 0 0 0 9.743-4.038 13.711 13.711 0 0 0 4.031-9.743 13.79 13.79 0 0 0-13.774-13.775h-1.6a11.952 11.952 0 0 1-11.942-11.935 11.837 11.837 0 0 1 3.5-8.44 11.838 11.838 0 0 1 8.446-3.5h16.407a7.629 7.629 0 0 0 5.442-2.256 7.638 7.638 0 0 0 2.263-5.449 7.714 7.714 0 0 0-7.705-7.706h-25.347a57.037 57.037 0 0 0-7.118 18.237 57.881 57.881 0 0 0-1.152 11.52 57.837 57.837 0 0 0 .407 6.892 57.166 57.166 0 0 0 13.116 30.189zm-3.089-46.266z" class="cls-1" transform="translate(1101.799 -1619.246)"/>
        </g>
        <g id="Group_516" transform="translate(-1044.34 1621.343)">
            <path id="Path_1273" fill="#959595" d="M-951.435 1684.666h-43.314a20.553 20.553 0 0 1-20.53-20.53 20.39 20.39 0 0 1 6.013-14.516 20.394 20.394 0 0 1 14.516-6.013h45.008l.743 3.1a64.315 64.315 0 0 1 1.761 14.964 63.592 63.592 0 0 1-3.274 20.237zm-43.314-32.977a12.367 12.367 0 0 0-8.8 3.645 12.366 12.366 0 0 0-3.645 8.8 12.461 12.461 0 0 0 12.447 12.448h37.417a55.775 55.775 0 0 0 2.012-14.913 56.4 56.4 0 0 0-.89-9.981z" transform="translate(1015.279 -1643.607)"/>
        </g>
        <g id="Group_515" transform="translate(-1104.299 1575.407)">
            <path id="Path_1272" fill="#484642" d="M-1040.3 1703.407a64.073 64.073 0 0 1-64-64 64.073 64.073 0 0 1 64-64 64.175 64.175 0 0 1 39.913 13.971 64.316 64.316 0 0 1 22.325 35.063 64.306 64.306 0 0 1 1.762 14.965 63.591 63.591 0 0 1-3.274 20.237 63.9 63.9 0 0 1-60.726 43.764zm0-119.918a55.98 55.98 0 0 0-55.918 55.917 55.981 55.981 0 0 0 55.918 55.918 55.83 55.83 0 0 0 53.06-38.24 55.538 55.538 0 0 0 2.858-17.678 56.227 56.227 0 0 0-1.539-13.082 55.725 55.725 0 0 0-54.379-42.834z" transform="translate(1104.299 -1575.407)"/>
        </g>
        <g id="Group_518" transform="translate(-1026.036 1602.39)">
            <path id="Path_1275" d="M-979.657 1623.551h-4.405a4.041 4.041 0 0 1-4.041-4.041 4.042 4.042 0 0 1 4.041-4.041h4.405a4.041 4.041 0 0 1 4.041 4.041 4.041 4.041 0 0 1-4.041 4.041z" class="cls-1" transform="translate(988.103 -1615.468)"/>
        </g>
    </g>
</svg>
