<svg xmlns="http://www.w3.org/2000/svg" width="119.421" height="128" viewBox="0 0 119.421 128">
    <defs>
        <style>
            .cls-1{fill:#959595}.cls-2{fill:#484642}
        </style>
    </defs>
    <g id="Group_514" transform="translate(253.867 -1348.884)">
        <g id="Group_511" transform="translate(-253.867 1348.884)">
            <g id="Group_510" transform="translate(0 61.278)">
                <g id="Group_508" transform="translate(88.318)">
                    <path id="Path_1269" d="M-101.04 1480.463a8.727 8.727 0 0 1-3.087-.571l-16.545-6.253a4.068 4.068 0 0 1-2.613-4.175c.407-4.459.614-9.122.614-13.86a72.888 72.888 0 0 0-.874-11.157 4.068 4.068 0 0 1 2.137-4.231l.922-.481a4.069 4.069 0 0 1 5.031 1.03l21 25.669a8.487 8.487 0 0 1 .327 10.44 8.482 8.482 0 0 1-6.912 3.589zm-13.893-13.351l13.683 5.171a.37.37 0 0 0 .518-.156.368.368 0 0 0-.017-.54l-13.791-16.856c0 .292.005.584.005.875 0 3.9-.134 7.758-.398 11.506z" class="cls-1" transform="translate(123.592 -1439.274)"/>
                </g>
                <g id="Group_509">
                    <path id="Path_1270" d="M-245.316 1480.567a8.483 8.483 0 0 1-6.925-3.6 8.486 8.486 0 0 1 .337-10.425l21.086-25.774a4.07 4.07 0 0 1 5.027-1.033l1.288.671a4.066 4.066 0 0 1 2.143 4.221 73.007 73.007 0 0 0-.841 10.98c0 4.736.206 9.4.614 13.86a4.067 4.067 0 0 1-2.628 4.18l-17.048 6.364a8.722 8.722 0 0 1-3.053.556zm13.991-26.334l-14.283 17.458a.368.368 0 0 0-.018.54.369.369 0 0 0 .516.157l14.169-5.289c-.264-3.745-.4-7.6-.4-11.494.005-.456.009-.914.017-1.372z" class="cls-1" transform="translate(253.867 -1439.274)"/>
                </g>
            </g>
            <g id="Group_507" transform="translate(22.531)">
                <path id="Path_1268" d="M-183.211 1476.885a153.665 153.665 0 0 1-18.908-1.049c-7.963-1.036-10.4-2.46-11.6-4.278a4.06 4.06 0 0 1-.468-.961l-.122-.366c-.024-.072-.045-.144-.065-.217a134.172 134.172 0 0 1-5.611-28.931c-.428-4.694-.646-9.606-.646-14.588a81.17 81.17 0 0 1 .935-12.207c5.411-36.025 32.48-63.1 33.63-64.23a4.067 4.067 0 0 1 5.715 0c1.145 1.131 28.113 28.1 33.6 64.04a81.017 81.017 0 0 1 .969 12.4c0 4.984-.218 9.9-.647 14.6a134.189 134.189 0 0 1-5.612 28.925c-.02.072-.041.144-.065.214l-.122.366a4.052 4.052 0 0 1-.467.959c-1.2 1.818-3.637 3.242-11.6 4.278a153.68 153.68 0 0 1-18.916 1.045zm-23.7-10.243c2.525.818 10.306 2.108 23.7 2.108s21.173-1.29 23.7-2.108a127.087 127.087 0 0 0 4.975-26.276c.408-4.471.615-9.134.615-13.872a72.887 72.887 0 0 0-.874-11.157c-4.066-26.653-21.48-48.577-28.41-56.407-6.945 7.859-24.441 29.909-28.447 56.576a73.034 73.034 0 0 0-.843 10.989c0 4.736.206 9.4.614 13.86a127.122 127.122 0 0 0 4.974 26.287zm48.113-.291zm-48.832 0" class="cls-2" transform="translate(220.632 -1348.884)"/>
            </g>
        </g>
        <g id="Group_512" transform="translate(-204.56 1402.481)">
            <circle id="Ellipse_260" cx="10.404" cy="10.404" r="10.404" fill="#f4263d"/>
        </g>
        <g id="Group_513" transform="translate(-208.746 1433.182)">
            <path id="Path_1271" d="M-159.487 1475.941h-26.468a1.356 1.356 0 0 1-1.356-1.356 1.355 1.355 0 0 1 1.356-1.356h26.468a1.356 1.356 0 0 1 1.356 1.356 1.356 1.356 0 0 1-1.356 1.356z" class="cls-2" transform="translate(187.311 -1473.229)"/>
        </g>
    </g>
</svg>
