<svg xmlns="http://www.w3.org/2000/svg" width="34" height="28.747" viewBox="0 0 34 28.747">
    <defs>
        <style>
            .cls-1{fill:none;stroke:#1a1a1a;stroke-width:2px}.cls-2{fill:#1a1a1a}.cls-3,.cls-5{stroke:none}.cls-5{fill:#f8f8f8}
        </style>
    </defs>
    <g id="Group_445" transform="translate(-232 -4347.253)">
        <g id="Group_443" transform="translate(8)">
            <g id="Rectangle_342" class="cls-1">
                <path d="M0 0H32V24H0z" class="cls-3" transform="translate(224 4352)"/>
                <path fill="none" d="M1 1H31V23H1z" transform="translate(224 4352)"/>
            </g>
            <g id="Group_442" transform="translate(228 4359)">
                <path id="Line_196" d="M0 0L24 0" class="cls-1"/>
                <path id="Line_197" d="M0 0L24 0" class="cls-1" transform="translate(0 5)"/>
                <path id="Line_198" d="M0 0L16 0" class="cls-1" transform="translate(0 10)"/>
            </g>
        </g>
        <g id="Group_444" transform="translate(249.426 4349.254)">
            <g id="Path_1216" class="cls-2">
                <path d="M13.68 27.696c-1.168 0-2.225-.692-2.694-1.762-.166-.376-.249-.788-.243-1.22l.008-.644.59-.259 3.23-1.416.589-.258.48.428c.318.285.565.624.733 1.006.316.721.333 1.521.047 2.254-.286.732-.84 1.308-1.56 1.623-.374.164-.772.248-1.18.248z" class="cls-3" transform="translate(-5.012 -9.95)"/>
                <path d="M14.973 23.311l-3.23 1.416c-.004.27.043.544.16.806.318.729 1.03 1.163 1.777 1.163.26 0 .526-.053.78-.164.983-.43 1.429-1.577.998-2.558-.116-.264-.285-.484-.485-.663m.374-2.348l.959.857c.425.38.756.834.982 1.348.425.967.447 2.04.063 3.02-.383.982-1.125 1.754-2.09 2.176-.5.22-1.033.332-1.58.332-1.564 0-2.98-.924-3.608-2.355-.226-.511-.337-1.063-.33-1.64l.016-1.288 1.18-.517 3.23-1.417 1.178-.516z" class="cls-5" transform="translate(-5.012 -9.95)"/>
            </g>
            <g id="Path_1217" class="cls-2">
                <path d="M1.998 16.849c-1.033 0-1.846-.499-2.123-1.3-.356-1.03.221-1.911.435-2.189.16-.288.211-1.012-.106-2.223-.259-.984-.638-1.823-.642-1.832l-.01-.021-.009-.024c-.504-1.269-.66-2.588-.452-3.814.164-.96.546-1.852 1.116-2.613C.001 2.193.021 1.506.27.87.555.139 1.11-.438 1.828-.753c.375-.165.772-.248 1.18-.248 1.06 0 2.03.57 2.55 1.475.99.098 1.959.442 2.83 1.011 1.047.683 1.908 1.662 2.49 2.83l.012.023.01.023c.003.008.374.85.93 1.702.68 1.043 1.24 1.491 1.553 1.57.45.033 1.595.225 2.046 1.302.484 1.16-.286 2.562-1.752 3.193L3.429 16.545c-.46.198-.956.304-1.431.304z" class="cls-3"/>
                <path d="M1.998 15.849c.328 0 .688-.073 1.035-.223l10.248-4.416c.946-.407 1.49-1.255 1.226-1.889-.28-.669-1.2-.692-1.252-.695-1.712-.285-3.272-3.865-3.272-3.865-1.036-2.08-3.003-3.316-5.01-3.316h-.099c-.024-.095-.046-.191-.087-.284-.32-.728-1.032-1.162-1.78-1.162-.26 0-.524.053-.778.164-.982.43-1.428 1.574-.997 2.556.042.098.1.178.155.264C.025 4.413-.439 6.598.472 8.891c0 0 1.625 3.56.658 5.045-.046.053-.53.647-.31 1.286.142.41.612.627 1.178.627m0 2c-1.473 0-2.648-.757-3.068-1.975-.398-1.152-.016-2.279.494-2.999.03-.185.031-.722-.24-1.675-.231-.812-.53-1.475-.532-1.482l-.021-.045-.017-.043c-.572-1.44-.748-2.945-.508-4.352.162-.954.51-1.85 1.022-2.645C-1 1.926-.93 1.194-.662.507-.28-.473.462-1.246 1.426-1.669 1.928-1.889 2.46-2 3.008-2c1.243 0 2.393.585 3.13 1.544.98.166 1.93.54 2.797 1.105 1.196.78 2.177 1.894 2.838 3.221l.023.046.02.047c.002.004.295.666.74 1.38.52.835.914 1.2 1.075 1.309 1.256.142 2.283.852 2.72 1.898.699 1.672-.303 3.647-2.279 4.498L3.825 17.463c-.585.252-1.217.386-1.827.386z" class="cls-5"/>
            </g>
        </g>
    </g>
</svg>
