<svg xmlns="http://www.w3.org/2000/svg" width="31.286" height="37.773" viewBox="0 0 31.286 37.773">
    <defs>
        <style>
            .cls-1{fill:#1a1a1a}.cls-4{stroke:none}
        </style>
    </defs>
    <g id="Group_447" transform="translate(-998.474 -418)">
        <g id="Group_446" transform="translate(999.393 438.409)">
            <path id="Path_1219" d="M1047.757 478.527l-4.686 1.378-1.378 4.686-11.3-11.3 6.064-6.064z" class="cls-1" transform="translate(-1018.309 -467.226)"/>
            <path id="Path_1220" d="M999.393 478.527l4.686 1.378 1.378 4.686 11.3-11.3-6.064-6.064z" class="cls-1" transform="translate(-999.393 -467.226)"/>
        </g>
        <g id="Path_1222" fill="none">
            <path d="M13.643 0A13.643 13.643 0 1 1 0 13.643 13.643 13.643 0 0 1 13.643 0z" class="cls-4" transform="translate(1000.474 420)"/>
            <path fill="#f8f8f8" d="M13.643 0C6.108 0 0 6.108 0 13.643c0 7.535 6.108 13.643 13.643 13.643 7.535 0 13.643-6.108 13.643-13.643C27.286 6.108 21.178 0 13.643 0m0-2c4.178 0 8.107 1.627 11.061 4.582 2.955 2.954 4.582 6.883 4.582 11.061s-1.627 8.107-4.582 11.061c-2.954 2.955-6.883 4.582-11.061 4.582s-8.107-1.627-11.061-4.582C-.373 21.75-2 17.821-2 13.643S-.373 5.536 2.582 2.582C5.536-.373 9.465-2 13.643-2z" transform="translate(1000.474 420)"/>
        </g>
        <g id="Path_1221" fill="#f8f8f8">
            <path d="M13.643 26.286c-3.377 0-6.552-1.315-8.94-3.703S1 17.02 1 13.643s1.315-6.552 3.703-8.94S10.266 1 13.643 1s6.552 1.315 8.94 3.703 3.703 5.563 3.703 8.94-1.315 6.552-3.703 8.94-5.563 3.703-8.94 3.703z" class="cls-4" transform="translate(1000.474 420)"/>
            <path fill="#1a1a1a" d="M13.643 2c-3.11 0-6.034 1.211-8.233 3.41C3.211 7.61 2 10.533 2 13.643c0 3.11 1.211 6.034 3.41 8.233 2.2 2.199 5.123 3.41 8.233 3.41 3.11 0 6.034-1.211 8.233-3.41 2.199-2.2 3.41-5.123 3.41-8.233 0-3.11-1.211-6.034-3.41-8.233C19.676 3.211 16.753 2 13.643 2m0-2c7.535 0 13.643 6.108 13.643 13.643 0 7.535-6.108 13.643-13.643 13.643C6.108 27.286 0 21.178 0 13.643 0 6.108 6.108 0 13.643 0z" transform="translate(1000.474 420)"/>
        </g>
        <path id="Path_1218" d="M1025.9 435.218l1.458 4.485a.447.447 0 0 0 .425.309h4.716a.447.447 0 0 1 .262.808l-3.815 2.772a.448.448 0 0 0-.162.5l1.458 4.485a.447.447 0 0 1-.688.5l-3.815-2.772a.446.446 0 0 0-.525 0l-3.815 2.772a.447.447 0 0 1-.687-.5l1.457-4.485a.447.447 0 0 0-.162-.5l-3.815-2.772a.447.447 0 0 1 .262-.808h4.716a.446.446 0 0 0 .425-.309l1.458-4.485a.447.447 0 0 1 .847 0z" class="cls-1" transform="translate(-11.355 -9.098)"/>
    </g>
</svg>
